<svg width="41" height="41" viewBox="0 0 41 41" fill="none" xmlns="http://www.w3.org/2000/svg">
<path d="M5.04167 24.9167V20.5H9.45833V24.9167H5.04167ZM0.625 20.5V16.0833H5.04167V20.5H0.625ZM20.5 5.04167V0.625H24.9167V5.04167H20.5ZM3.9375 10.5625H10.5625V3.9375H3.9375V10.5625ZM0.625 13.875V0.625H13.875V13.875H0.625ZM3.9375 37.0625H10.5625V30.4375H3.9375V37.0625ZM0.625 40.375V27.125H13.875V40.375H0.625ZM30.4375 10.5625H37.0625V3.9375H30.4375V10.5625ZM27.125 13.875V0.625H40.375V13.875H27.125ZM13.875 24.9167V20.5H9.45833V16.0833H18.2917V24.9167H13.875ZM16.0833 13.875V5.04167H20.5V9.45833H24.9167V13.875H16.0833ZM5.59375 8.90625V5.59375H8.90625V8.90625H5.59375ZM5.59375 35.4062V32.0937H8.90625V35.4062H5.59375ZM32.0937 8.90625V5.59375H35.4062V8.90625H32.0937ZM29.3333 40.375V33.75H22.7083V29.3333H29.3333V22.7083H33.75V29.3333H40.375V33.75H33.75V40.375H29.3333Z" fill="#E4E4E4"/>
</svg>
